<?xml version="1.0" encoding="UTF-8"?>
<svg xmlns="http://www.w3.org/2000/svg" id="Layer_1" data-name="Layer 1" viewBox="0 0 24 24">
  <path d="M22.94,1.061c-1.368-1.367-3.76-1.365-5.124,0L1.611,17.265c-1.039,1.04-1.611,2.421-1.611,3.89v2.346c0,.276,.224,.5,.5,.5H2.846c1.47,0,2.851-.572,3.889-1.611L22.86,6.265c.579-.581,.953-1.262,1.08-1.972,.216-1.202-.148-2.381-1-3.232ZM6.028,21.682c-.85,.851-1.979,1.318-3.182,1.318H1v-1.846c0-1.202,.468-2.332,1.318-3.183L15.292,4.999l3.709,3.709L6.028,21.682ZM22.956,4.116c-.115,.642-.5,1.138-.803,1.441l-2.444,2.444-3.709-3.709,2.525-2.525c.986-.988,2.718-.99,3.709,0,.617,.617,.88,1.473,.723,2.349Z"/>
</svg>
